<svg width="325" height="94" viewBox="0 0 325 94" fill="none" xmlns="http://www.w3.org/2000/svg">
<path d="M312.903 94H12.0347C5.41863 94 0 88.7096 0 82.25V11.75C0 5.29044 5.41863 9.69201e-06 12.0347 9.69201e-06H312.903C319.519 9.69201e-06 324.937 5.29044 324.937 11.75V82.25C324.937 88.7096 319.519 94 312.903 94Z" fill="black"/>
<path d="M312.903 1.88294C318.475 1.88294 323.009 6.30976 323.009 11.75V82.25C323.009 87.6903 318.475 92.1171 312.903 92.1171H12.0347C6.46264 92.1171 1.92856 87.6903 1.92856 82.25V11.75C1.92856 6.30976 6.46264 1.88294 12.0347 1.88294H312.903ZM312.903 9.69201e-06H12.0347C5.41863 9.69201e-06 0 5.29044 0 11.75V82.25C0 88.7096 5.41863 94 12.0347 94H312.903C319.519 94 324.937 88.7096 324.937 82.25V11.75C324.937 5.29044 319.519 9.69201e-06 312.903 9.69201e-06Z" fill="#A6A6A6"/>
<path d="M114.131 24.0729C114.131 26.0351 113.53 27.6067 112.344 28.7788C110.981 30.1682 109.206 30.8673 107.031 30.8673C104.952 30.8673 103.177 30.1564 101.721 28.7552C100.261 27.3335 99.5332 25.5886 99.5332 23.5001C99.5332 21.4115 100.261 19.6666 101.721 18.2566C103.177 16.8437 104.952 16.1328 107.031 16.1328C108.066 16.1328 109.053 16.3414 109.994 16.7291C110.933 17.1198 111.697 17.6486 112.251 18.3007L110.993 19.5403C110.027 18.427 108.713 17.8777 107.031 17.8777C105.514 17.8777 104.2 18.3947 103.083 19.4375C101.979 20.4832 101.426 21.8374 101.426 23.5001C101.426 25.1627 101.979 26.5286 103.083 27.5744C104.2 28.6054 105.514 29.1342 107.031 29.1342C108.64 29.1342 109.994 28.6054 111.062 27.5626C111.766 26.8723 112.167 25.9206 112.272 24.7044H107.031V23.0066H114.023C114.107 23.3737 114.131 23.7292 114.131 24.0729Z" fill="white" stroke="white" stroke-width="0.16" stroke-miterlimit="10"/>
<path d="M125.224 18.186H118.656V22.651H124.577V24.3489H118.656V28.8139H125.224V30.5441H116.797V16.4558H125.224V18.186Z" fill="white" stroke="white" stroke-width="0.16" stroke-miterlimit="10"/>
<path d="M133.054 30.5441H131.195V18.186H127.166V16.4558H137.086V18.186H133.054V30.5441Z" fill="white" stroke="white" stroke-width="0.16" stroke-miterlimit="10"/>
<path d="M144.262 30.5441V16.4558H146.118V30.5441H144.262Z" fill="white" stroke="white" stroke-width="0.16" stroke-miterlimit="10"/>
<path d="M154.349 30.5441H152.505V18.186H148.461V16.4558H158.393V18.186H154.349V30.5441Z" fill="white" stroke="white" stroke-width="0.16" stroke-miterlimit="10"/>
<path d="M177.173 28.7317C175.75 30.1564 173.987 30.8673 171.884 30.8673C169.768 30.8673 168.005 30.1564 166.582 28.7317C165.162 27.31 164.455 25.5651 164.455 23.5001C164.455 21.435 165.162 19.6901 166.582 18.2684C168.005 16.8437 169.768 16.1328 171.884 16.1328C173.975 16.1328 175.738 16.8437 177.161 18.2801C178.593 19.7136 179.3 21.4468 179.3 23.5001C179.3 25.5651 178.593 27.31 177.173 28.7317ZM167.957 27.5509C169.028 28.6054 170.331 29.1342 171.884 29.1342C173.424 29.1342 174.739 28.6054 175.798 27.5509C176.866 26.4963 177.407 25.1421 177.407 23.5001C177.407 21.858 176.866 20.5038 175.798 19.4493C174.739 18.3947 173.424 17.8659 171.884 17.8659C170.331 17.8659 169.028 18.3947 167.957 19.4493C166.889 20.5038 166.348 21.858 166.348 23.5001C166.348 25.1421 166.889 26.4963 167.957 27.5509Z" fill="white" stroke="white" stroke-width="0.16" stroke-miterlimit="10"/>
<path d="M181.906 30.5441V16.4558H184.163L191.179 27.4127H191.26L191.179 24.7043V16.4558H193.035V30.5441H191.098L183.751 19.0467H183.669L183.751 21.7668V30.5441H181.906Z" fill="white" stroke="white" stroke-width="0.16" stroke-miterlimit="10"/>
<path d="M163.997 51.1183C158.344 51.1183 153.726 55.3189 153.726 61.1146C153.726 66.8633 158.344 71.108 163.997 71.108C169.663 71.108 174.281 66.8633 174.281 61.1146C174.281 55.3189 169.663 51.1183 163.997 51.1183ZM163.997 67.1717C160.895 67.1717 158.227 64.6719 158.227 61.1146C158.227 57.5103 160.895 55.0545 163.997 55.0545C167.099 55.0545 169.78 57.5103 169.78 61.1146C169.78 64.6719 167.099 67.1717 163.997 67.1717ZM141.586 51.1183C135.92 51.1183 131.314 55.3189 131.314 61.1146C131.314 66.8633 135.92 71.108 141.586 71.108C147.248 71.108 151.857 66.8633 151.857 61.1146C151.857 55.3189 147.248 51.1183 141.586 51.1183ZM141.586 67.1717C138.481 67.1717 135.803 64.6719 135.803 61.1146C135.803 57.5103 138.481 55.0545 141.586 55.0545C144.688 55.0545 147.356 57.5103 147.356 61.1146C147.356 64.6719 144.688 67.1717 141.586 67.1717ZM114.917 54.1821V58.4297H125.306C125.002 60.8032 124.19 62.5481 122.944 63.7642C121.428 65.233 119.066 66.8633 114.917 66.8633C108.523 66.8633 103.517 61.8255 103.517 55.5833C103.517 49.3411 108.523 44.3033 114.917 44.3033C118.374 44.3033 120.889 45.6222 122.745 47.3319L125.811 44.3385C123.215 41.918 119.761 40.0586 114.917 40.0586C106.149 40.0586 98.7812 47.0234 98.7812 55.5833C98.7812 64.1432 106.149 71.108 114.917 71.108C119.655 71.108 123.215 69.5922 126.013 66.7487C128.88 63.9493 129.774 60.013 129.774 56.8347C129.774 55.8477 129.689 54.94 129.539 54.1821H114.917ZM223.969 57.475C223.124 55.2396 220.515 51.1183 215.202 51.1183C209.937 51.1183 205.553 55.1691 205.553 61.1146C205.553 66.7135 209.892 71.108 215.708 71.108C220.41 71.108 223.124 68.3085 224.24 66.6782L220.75 64.4075C219.586 66.0702 218 67.1717 215.708 67.1717C213.43 67.1717 211.796 66.1524 210.749 64.1432L224.442 58.6118L223.969 57.475ZM210.009 60.8032C209.892 56.9492 213.075 54.9752 215.355 54.9752C217.143 54.9752 218.659 55.8477 219.164 57.0961L210.009 60.8032ZM198.88 70.4999H203.381V41.1249H198.88V70.4999ZM191.509 53.3449H191.358C190.347 52.1758 188.419 51.1183 185.976 51.1183C180.849 51.1183 176.161 55.5128 176.161 61.1469C176.161 66.7487 180.849 71.108 185.976 71.108C188.419 71.108 190.347 70.0417 191.358 68.8373H191.509V70.2708C191.509 74.0925 189.418 76.1458 186.045 76.1458C183.295 76.1458 181.589 74.207 180.885 72.5767L176.971 74.1718C178.099 76.8214 181.087 80.082 186.045 80.082C191.322 80.082 195.775 77.0505 195.775 69.6745V51.7264H191.509V53.3449ZM186.361 67.1717C183.259 67.1717 180.662 64.6367 180.662 61.1469C180.662 57.6249 183.259 55.0545 186.361 55.0545C189.418 55.0545 191.828 57.6249 191.828 61.1469C191.828 64.6367 189.418 67.1717 186.361 67.1717ZM245.042 41.1249H234.277V70.4999H238.766V59.3697H245.042C250.027 59.3697 254.917 55.8477 254.917 50.2459C254.917 44.647 250.015 41.1249 245.042 41.1249ZM245.159 55.2837H238.766V45.211H245.159C248.511 45.211 250.425 47.9282 250.425 50.2459C250.425 52.5195 248.511 55.2837 245.159 55.2837ZM272.909 51.0625C269.665 51.0625 266.292 52.4607 264.905 55.5598L268.889 57.1901C269.746 55.5598 271.323 55.031 272.99 55.031C275.318 55.031 277.68 56.397 277.716 58.8087V59.1171C276.904 58.6589 275.165 57.9803 273.026 57.9803C268.735 57.9803 264.364 60.2862 264.364 64.5897C264.364 68.5259 267.878 71.061 271.828 71.061C274.849 71.061 276.516 69.7303 277.563 68.1822H277.716V70.4529H282.052V59.1847C282.052 53.9765 278.068 51.0625 272.909 51.0625ZM272.367 67.16C270.899 67.16 268.853 66.4491 268.853 64.6719C268.853 62.3983 271.404 61.5258 273.613 61.5258C275.589 61.5258 276.516 61.9518 277.716 62.5128C277.364 65.233 274.966 67.16 272.367 67.16ZM297.847 51.7058L292.688 64.4398H292.534L287.2 51.7058H282.359L290.374 69.5012L285.801 79.4035H290.491L302.842 51.7058H297.847ZM257.384 70.4999H261.885V41.1249H257.384V70.4999Z" fill="white"/>
<path d="M25.1182 17.7161C24.4111 18.4387 24.002 19.5638 24.002 21.0208V72.991C24.002 74.448 24.4111 75.5731 25.1182 76.2957L25.2927 76.4543L55.1207 47.3437V46.6563L25.2927 17.5457L25.1182 17.7161Z" fill="url(#paint0_linear_68_652)"/>
<path d="M65.0508 57.0522L55.1191 47.3438V46.6564L65.0628 36.948L65.2855 37.0743L77.0614 43.6161C80.4221 45.4726 80.4221 48.5276 77.0614 50.3959L65.2855 56.9259L65.0508 57.0522Z" fill="url(#paint1_linear_68_652)"/>
<path d="M65.2861 56.9258L55.1197 47L25.1172 76.2957C26.2334 77.4413 28.0537 77.5794 30.1236 76.4338L65.2861 56.9258Z" fill="url(#paint2_linear_68_652)"/>
<path d="M65.2861 37.0742L30.1236 17.5663C28.0537 16.4324 26.2334 16.5704 25.1172 17.7161L55.1197 47L65.2861 37.0742Z" fill="url(#paint3_linear_68_652)"/>
<defs>
<linearGradient id="paint0_linear_68_652" x1="52.4723" y1="73.5322" x2="13.045" y2="33.1495" gradientUnits="userSpaceOnUse">
<stop stop-color="#00A0FF"/>
<stop offset="0.0066" stop-color="#00A1FF"/>
<stop offset="0.2601" stop-color="#00BEFF"/>
<stop offset="0.5122" stop-color="#00D2FF"/>
<stop offset="0.7604" stop-color="#00DFFF"/>
<stop offset="1" stop-color="#00E3FF"/>
</linearGradient>
<linearGradient id="paint1_linear_68_652" x1="81.4376" y1="46.9968" x2="23.1971" y2="46.9968" gradientUnits="userSpaceOnUse">
<stop stop-color="#FFE000"/>
<stop offset="0.4087" stop-color="#FFBD00"/>
<stop offset="0.7754" stop-color="#FFA500"/>
<stop offset="1" stop-color="#FF9C00"/>
</linearGradient>
<linearGradient id="paint2_linear_68_652" x1="59.7579" y1="41.6042" x2="6.29124" y2="-13.1581" gradientUnits="userSpaceOnUse">
<stop stop-color="#FF3A44"/>
<stop offset="1" stop-color="#C31162"/>
</linearGradient>
<linearGradient id="paint3_linear_68_652" x1="17.5649" y1="93.5859" x2="41.4402" y2="69.1324" gradientUnits="userSpaceOnUse">
<stop stop-color="#32A071"/>
<stop offset="0.0685" stop-color="#2DA771"/>
<stop offset="0.4762" stop-color="#15CF74"/>
<stop offset="0.8009" stop-color="#06E775"/>
<stop offset="1" stop-color="#00F076"/>
</linearGradient>
</defs>
</svg>
